<svg width="29" height="29" viewBox="0 0 29 29" fill="none" xmlns="http://www.w3.org/2000/svg">
<path d="M14.5 16.9167C17.1656 16.9167 19.3334 14.7489 19.3334 12.0833C19.3334 9.41775 17.1656 7.25 14.5 7.25C11.8344 7.25 9.66669 9.41775 9.66669 12.0833C9.66669 14.7489 11.8344 16.9167 14.5 16.9167ZM14.5 9.66667C15.8328 9.66667 16.9167 10.7505 16.9167 12.0833C16.9167 13.4161 15.8328 14.5 14.5 14.5C13.1672 14.5 12.0834 13.4161 12.0834 12.0833C12.0834 10.7505 13.1672 9.66667 14.5 9.66667Z" fill="white"/>
<path d="M13.7992 26.3586C14.0038 26.5043 14.2488 26.5826 14.5 26.5826C14.7512 26.5826 14.9962 26.5043 15.2009 26.3586C15.5682 26.0988 24.2017 19.865 24.1667 12.0834C24.1667 6.7534 19.83 2.41669 14.5 2.41669C9.17007 2.41669 4.83336 6.7534 4.83336 12.0773C4.79832 19.865 13.4319 26.0988 13.7992 26.3586ZM14.5 4.83335C18.4984 4.83335 21.75 8.08498 21.75 12.0894C21.7754 17.452 16.4479 22.2672 14.5 23.8465C12.5534 22.266 7.22465 17.4496 7.25003 12.0834C7.25003 8.08498 10.5016 4.83335 14.5 4.83335Z" fill="white"/>
</svg>
