<svg width="26" height="26" viewBox="0 0 26 26" fill="none" xmlns="http://www.w3.org/2000/svg">
<path d="M4.33331 6.49999V20.5833C4.33331 21.4453 4.67572 22.2719 5.28522 22.8814C5.89471 23.4909 6.72136 23.8333 7.58331 23.8333H18.4166C19.2786 23.8333 20.1053 23.4909 20.7147 22.8814C21.3242 22.2719 21.6666 21.4453 21.6666 20.5833V9.74999C21.6666 8.88804 21.3242 8.06139 20.7147 7.45189C20.1053 6.8424 19.2786 6.49999 18.4166 6.49999H4.33331ZM4.33331 6.49999V5.41666" stroke="white" stroke-width="1.5"/>
<path d="M13 17.3333C14.7949 17.3333 16.25 15.8782 16.25 14.0833C16.25 12.2884 14.7949 10.8333 13 10.8333C11.2051 10.8333 9.75 12.2884 9.75 14.0833C9.75 15.8782 11.2051 17.3333 13 17.3333Z" stroke="white" stroke-width="1.5"/>
<path d="M19.5 6.49999V7.31249H20.3125V6.49999H19.5ZM5.49248 7.31249H19.5V5.68749H5.49356L5.49248 7.31249ZM20.3125 6.49999V4.66483H18.6875V6.49999H20.3125ZM16.9119 1.71599L5.21515 3.38649L5.44481 4.99524L17.1416 3.32582L16.9119 1.71599ZM5.21515 3.38649C4.74461 3.45334 4.31405 3.6879 4.00273 4.047C3.69141 4.4061 3.52027 4.86556 3.52081 5.34082H5.14581C5.14554 5.25695 5.17569 5.17582 5.23067 5.11247C5.28565 5.04912 5.36173 5.00677 5.44481 4.99524L5.21515 3.38649ZM20.3125 4.66483C20.3124 4.23802 20.2207 3.8162 20.0434 3.42794C19.8662 3.03968 19.6075 2.69404 19.2851 2.41442C18.9626 2.1348 18.5839 1.92773 18.1744 1.80723C17.765 1.68673 17.3344 1.65562 16.9119 1.71599L17.1416 3.32582C17.3336 3.29835 17.5293 3.31138 17.7154 3.36613C17.9015 3.42087 18.0737 3.51496 18.2203 3.64203C18.3669 3.7691 18.4845 3.92618 18.5651 4.10265C18.6457 4.27911 18.6874 4.47083 18.6875 4.66483H20.3125ZM5.49356 5.68749C5.44786 5.68763 5.40257 5.67874 5.36032 5.66131C5.31806 5.64389 5.27967 5.61828 5.24735 5.58596C5.21503 5.55364 5.18942 5.51524 5.17199 5.47299C5.15457 5.43073 5.14567 5.38653 5.14581 5.34082H3.52081C3.52067 5.59993 3.5716 5.85544 3.67069 6.09485C3.76978 6.33426 3.91509 6.55179 4.0983 6.735C4.28152 6.91822 4.49905 7.06353 4.73846 7.16262C4.97787 7.2617 5.23338 7.31263 5.49248 7.31249L5.49356 5.68749Z" fill="white"/>
<path d="M10.8333 20.5833H15.1666" stroke="white" stroke-width="1.5" stroke-linecap="round"/>
</svg>
